<svg width="24" height="24" viewBox="0 0 24 24" fill="none" xmlns="http://www.w3.org/2000/svg">
<path fill-rule="evenodd" clip-rule="evenodd" d="M22.9646 4.39981C23.3092 5.3101 23.4892 6.27566 23.5032 7.24896C23.5749 8.47372 23.5752 8.87427 23.5778 11.9745V12.0176C23.5778 15.1586 23.5612 15.5508 23.5058 16.7877C23.4865 17.7506 23.3053 18.6996 22.9671 19.5996C22.3641 21.1527 21.1362 22.3818 19.5818 22.9848C18.6818 23.323 17.7317 23.5042 16.7712 23.5236C15.5434 23.5956 15.1409 23.5956 12.0013 23.5956C8.86154 23.5956 8.4694 23.5788 7.23125 23.5236C6.26697 23.4927 5.31683 23.2946 4.42197 22.9449C2.86626 22.3432 1.63839 21.1141 1.0354 19.5609C0.697254 18.6597 0.515968 17.7108 0.496683 16.749C0.424683 15.5199 0.424683 15.1188 0.424683 11.9791C0.424683 8.83938 0.441397 8.44724 0.496683 7.20909C0.514683 6.24867 0.697254 5.29852 1.0354 4.39981C1.63711 2.84538 2.86626 1.61624 4.42068 1.01452C5.3194 0.67638 6.26954 0.495094 7.22997 0.474523C8.45782 0.403809 8.86026 0.403809 12 0.403809C15.1397 0.403809 15.5318 0.419237 16.7687 0.474523C17.7304 0.495094 18.6806 0.67638 19.5792 1.01452C21.1337 1.61624 22.3615 2.84538 22.9646 4.39981ZM6.04839 11.9727C6.04839 15.2564 8.70854 17.9165 11.9922 17.9165C15.2734 17.9165 17.9361 15.2564 17.9361 11.9727C17.9361 8.68896 15.2734 6.02881 11.9922 6.02881C8.70854 6.02881 6.04839 8.68896 6.04839 11.9727ZM16.7866 5.80896C16.7866 6.57524 17.4052 7.19496 18.1727 7.19496C18.9377 7.19496 19.5574 6.57524 19.5574 5.80896C19.5574 5.04267 18.9377 4.42296 18.1727 4.42296C17.4052 4.42296 16.7866 5.04267 16.7866 5.80896ZM15.8534 11.9729C15.8534 14.1053 14.1248 15.834 11.9925 15.834C9.86006 15.834 8.13144 14.1053 8.13144 11.9729C8.13144 9.84058 9.86006 8.11195 11.9925 8.11195C14.1248 8.11195 15.8534 9.84058 15.8534 11.9729Z" fill="black"/>
</svg>
