<svg width="24" height="23" viewBox="0 0 24 23" fill="none" xmlns="http://www.w3.org/2000/svg">
<path d="M21.9048 0.287598H2.09527C1.41061 0.287598 0.857178 0.845731 0.857178 1.53343V21.4668C0.857178 22.1545 1.41061 22.7126 2.09527 22.7126H21.9048C22.5895 22.7126 23.1429 22.1545 23.1429 21.4668V1.53343C23.1429 0.845731 22.5895 0.287598 21.9048 0.287598ZM7.46737 19.395H4.15918V8.69323H7.46737V19.395ZM5.81327 7.23187C4.75346 7.23187 3.8967 6.36727 3.8967 5.30332C3.8967 4.23938 4.75223 3.37477 5.81327 3.37477C6.87061 3.37477 7.72984 4.23813 7.72984 5.30332C7.72984 6.36851 6.87061 7.23187 5.81327 7.23187ZM19.8471 19.395H16.5427V14.1911C16.5427 12.9502 16.5204 11.3543 14.8242 11.3543C13.1032 11.3543 12.842 12.7074 12.842 14.1039V19.3962H9.53994V8.69448H12.7095V10.1571H12.7552C13.1948 9.31615 14.2744 8.42911 15.8803 8.42911C19.228 8.42911 19.8459 10.6442 19.8459 13.5271V19.395H19.8471Z" fill="black"/>
</svg>
