<svg width="1080" height="168" viewBox="0 0 1080 168" fill="none" xmlns="http://www.w3.org/2000/svg">
<path fill-rule="evenodd" clip-rule="evenodd" d="M822.546 61.3797L800.313 39.1221L829.797 28.2163L829.52 27.086L798.062 30.0451L807.493 0.584709L806.419 0.0849609L789.431 26.0307L771.701 0.199458L770.64 0.706313L780.913 30.1016L749.374 27.3507L749.127 28.4823L778.926 39.1922L757.323 61.592L758.074 62.4964L784.961 46.4559L789.568 77.1404L790.753 77.1365L794.48 46.4252L821.82 62.2899L822.546 61.3797ZM1028.91 138.899C1072.51 117.782 1069.65 76.1206 1039.41 76.1206C1017.18 76.1206 996.48 100.965 989.897 123.897H986.365L990.28 26.0512L989.326 26.6245V26.0512L945.253 41.8173C952.064 52.6254 955.392 65.2665 954.797 78.0317V191.835C955.237 204.613 951.917 217.241 945.253 228.144H998.576C991.912 217.241 988.592 204.613 989.04 191.835V140.045C996.382 114.342 1009.93 103.544 1023.57 103.544C1041.32 103.544 1043.22 136.318 996.479 145.491L1021.66 200.721C1026 209.209 1028.47 218.526 1028.91 228.049H1079.95C1071.04 216.651 1063.19 204.465 1056.48 191.643L1028.91 138.899ZM534.486 117.782C532.401 124.855 527.803 140.146 522.698 157.124C520.562 164.227 518.337 171.624 516.171 178.839C510.447 159.729 499.858 124.47 495.374 109.659C493.288 104.464 492.485 98.841 493.033 93.2675C493.581 87.6948 495.464 82.337 498.523 77.6493H409.043V43.5371H407.517C396.643 61.501 374.129 72.2028 356.577 77.6493V84.5293H374.034V194.223C374.034 208.843 381.952 229.96 405.705 229.96C414.256 230.474 422.722 228.018 429.674 223.004C436.626 217.99 441.638 210.727 443.862 202.441C438.285 205.316 432.105 206.823 425.833 206.836C423.53 207.084 421.201 206.808 419.02 206.027C416.838 205.247 414.862 203.981 413.238 202.327C411.614 200.672 410.385 198.672 409.641 196.474C408.899 194.277 408.662 191.939 408.948 189.637V84.5293H429.935C450.734 84.5293 454.261 95.2473 459.044 109.783L459.047 109.793C459.353 110.721 459.663 111.664 459.984 112.622C465.326 128.579 483.165 180.655 500.24 230.437C499.047 234.484 496.499 237.996 493.024 240.381C489.549 242.765 485.359 243.877 481.161 243.528C471.211 243.58 461.546 240.207 453.784 233.973L444.912 272.959C451.479 275.39 458.42 276.651 465.421 276.685C482.592 276.685 496.901 266.461 506.917 234.738C514.29 211.165 521.877 185.771 528.306 164.255L528.313 164.232L528.317 164.216L528.325 164.192L528.326 164.188L528.327 164.184C534.032 145.089 538.822 129.057 541.736 120.074C546.323 105.457 552.23 91.2884 559.384 77.7449H532.482C540.782 85.2933 540.21 98.9578 534.486 117.782ZM618.237 84.5301V189.637C617.951 191.94 618.188 194.277 618.931 196.475C619.674 198.672 620.903 200.673 622.527 202.328C624.151 203.982 626.128 205.247 628.309 206.028C630.49 206.809 632.819 207.085 635.122 206.837C641.394 206.812 647.571 205.306 653.152 202.441C650.927 210.728 645.915 217.991 638.964 223.004C632.011 228.018 623.545 230.475 614.994 229.961C591.241 229.961 583.324 208.843 583.324 194.224V84.5301H565.771V77.6499C583.323 72.2035 605.741 61.5016 616.711 43.5377H618.237V77.6499H650.958L648.859 84.5301H618.237ZM878.381 83.481C843.656 83.481 850.525 194.513 900.886 194.513C907.991 194.207 914.9 192.079 920.953 188.331C926.997 184.583 931.981 179.341 935.424 173.109C932.846 209.323 915.961 229.771 888.586 229.771C855.672 229.771 829.536 202.348 829.536 152.565C829.536 106.7 851.952 76.1232 891.351 76.1232C905.919 76.8506 920.015 81.5777 932.087 89.7874V145.972H930.75C917.87 121.702 895.927 83.481 878.381 83.481ZM765.821 93.4162L809.989 77.6501L809.607 191.835C809.161 204.614 812.479 217.242 819.144 228.145H765.821C772.489 217.242 775.806 204.614 775.361 191.835V129.726C775.806 116.947 772.489 104.32 765.821 93.4162ZM296.577 114.534H294.001L296.005 77.6512L251.837 93.417C258.505 104.321 261.823 116.949 261.377 129.727V191.836C261.823 204.615 258.505 217.243 251.837 228.146H305.163C298.495 217.243 295.178 204.615 295.623 191.836V131.447C295.623 107.368 327.58 108.706 341.793 125.618H342.747V77.1734C319.185 71.3447 301.061 96.2842 296.577 114.534ZM703.713 114.535H706.289C710.772 96.2851 728.992 71.3455 752.65 77.1743V125.619H751.601C737.483 108.707 705.43 107.368 705.43 131.448V191.837C704.985 204.616 708.302 217.243 714.969 228.147H661.644C668.312 217.243 671.63 204.616 671.184 191.837V129.728C671.63 116.95 668.312 104.322 661.644 93.4178L705.716 77.652L703.713 114.535ZM183.249 76.0256C209.482 76.0256 228.561 87.4921 228.561 117.209V194.224C228.505 206.143 231.812 217.835 238.101 227.954H193.838V202.633C191.316 210.425 186.49 217.265 179.999 222.247C173.509 227.23 165.66 230.12 157.493 230.534C152.492 230.947 147.461 230.287 142.735 228.598C138.008 226.909 133.695 224.23 130.084 220.74C126.473 217.249 123.646 213.027 121.793 208.356C119.94 203.685 119.102 198.672 119.336 193.651C119.336 167.745 139.331 156.299 158.55 145.297C176.335 135.117 193.457 125.315 193.457 104.787V90.741C193.457 86.1537 191.167 82.6189 186.207 82.6189C178.736 82.6189 165.725 95.4197 139.437 121.282C135.852 124.81 132.02 128.579 127.921 132.592H126.872L142.899 81.8541C156.041 78.1748 169.604 76.2156 183.249 76.0256ZM156.921 187.726C156.921 200.148 162.454 208.461 173.233 208.461H173.71C185.062 208.461 192.216 193.46 193.457 181.42V123.42C190.247 134.967 182.72 143.275 175.326 151.436C166.017 161.71 156.921 171.75 156.921 187.726ZM122.295 76.5011C122.295 56.1484 107.222 39.1401 76.9825 39.1401H0C6.68825 50.0349 10.0075 62.669 9.53932 75.4502V191.833C9.99995 204.583 6.68059 217.185 0 228.047H53.3252C46.6446 217.185 43.3252 204.583 43.7858 191.833V170.907C80.703 146.35 122.295 115.391 122.295 76.5011ZM83.4692 80.8966C83.4692 116.442 66.9662 141.19 44.1672 162.403V46.4022H53.7065C74.8838 46.4022 83.8509 58.9196 83.8509 80.8011L83.4692 80.8966Z" fill="black"/>
</svg>
