<svg width="162" height="41" viewBox="0 0 162 41" fill="none" xmlns="http://www.w3.org/2000/svg">
<path fill-rule="evenodd" clip-rule="evenodd" d="M118.322 9.45582L115.144 6.27805L119.359 4.72102L119.319 4.55964L114.823 4.98211L116.17 0.775991L116.017 0.704641L113.589 4.40897L111.055 0.720988L110.903 0.793353L112.371 4.99018L107.863 4.59743L107.828 4.75899L112.087 6.28807L108.999 9.48613L109.107 9.61526L112.95 7.32512L113.609 11.706L113.777 11.7054L114.31 7.32074L118.218 9.5858L118.322 9.45582ZM147.819 20.5234C154.051 17.5084 153.642 11.5604 149.319 11.5604C146.142 11.5604 143.183 15.1074 142.243 18.3815H141.738L142.297 4.4119L142.161 4.49374V4.4119L135.861 6.66286C136.834 8.20596 137.31 10.0108 137.224 11.8333V28.0812C137.288 29.9056 136.814 31.7085 135.861 33.2652H143.483C142.53 31.7085 142.056 29.9056 142.12 28.0812V20.6871C143.17 17.0173 145.106 15.4757 147.056 15.4757C149.592 15.4757 149.864 20.155 143.183 21.4646L146.782 29.3499C147.402 30.5617 147.755 31.892 147.819 33.2516H155.114C153.841 31.6243 152.718 29.8845 151.76 28.0538L147.819 20.5234ZM77.1482 17.5084C76.8502 18.5184 76.193 20.7015 75.4632 23.1254C75.1579 24.1395 74.84 25.1956 74.5303 26.2258C73.7122 23.4973 72.1986 18.4633 71.5578 16.3488C71.2595 15.6071 71.1448 14.8042 71.223 14.0086C71.3014 13.2129 71.5705 12.4479 72.0078 11.7786H59.2181V6.9084H58.9999C57.4456 9.47314 54.2277 11.0011 51.7188 11.7786V12.7609H54.2141V28.4222C54.2141 30.5094 55.3458 33.5244 58.7409 33.5244C59.9632 33.5978 61.1732 33.247 62.1668 32.5312C63.1606 31.8154 63.8769 30.7784 64.1949 29.5954C63.3977 30.0059 62.5145 30.221 61.6178 30.2229C61.2887 30.2584 60.9557 30.2189 60.644 30.1074C60.3322 29.996 60.0498 29.8153 59.8176 29.5791C59.5855 29.3429 59.4097 29.0573 59.3035 28.7436C59.1974 28.4298 59.1634 28.0961 59.2044 27.7674V12.7609H62.2042C65.1771 12.7609 65.6812 14.2912 66.3649 16.3664L66.3654 16.3679C66.409 16.5003 66.4534 16.635 66.4992 16.7718C67.2628 19.0499 69.8125 26.485 72.2531 33.5925C72.0828 34.1704 71.7185 34.6717 71.2218 35.0121C70.7251 35.3526 70.1262 35.5113 69.5262 35.4616C68.104 35.469 66.7225 34.9874 65.613 34.0973L64.3449 39.6634C65.2835 40.0105 66.2757 40.1906 67.2764 40.1954C69.7307 40.1954 71.776 38.7357 73.2076 34.2065C74.2616 30.841 75.346 27.2154 76.2648 24.1437L76.2659 24.1402L76.2665 24.138L76.2675 24.1345L76.2679 24.1333C77.0833 21.4071 77.7679 19.1182 78.1844 17.8359C78.8402 15.7489 79.6845 13.726 80.707 11.7923H76.8619C78.0481 12.87 77.9663 14.8208 77.1482 17.5084ZM89.1192 12.761V27.7675C89.0782 28.0962 89.1121 28.4299 89.2183 28.7437C89.3244 29.0574 89.5002 29.343 89.7324 29.5792C89.9645 29.8154 90.247 29.9961 90.5588 30.1075C90.8705 30.219 91.2034 30.2585 91.5326 30.223C92.429 30.2196 93.3119 30.0046 94.1096 29.5955C93.7916 30.7785 93.0753 31.8155 92.0817 32.5313C91.0879 33.2471 89.8779 33.5979 88.6556 33.5245C85.2605 33.5245 84.1288 30.5095 84.1288 28.4223V12.761H81.6199V11.7787C84.1288 11.0012 87.3331 9.47322 88.901 6.90848H89.1192V11.7787H93.7961L93.496 12.761H89.1192ZM126.302 12.6112C121.339 12.6112 122.32 28.4635 129.52 28.4635C130.536 28.42 131.523 28.1161 132.387 27.581C133.252 27.0458 133.964 26.2975 134.456 25.4076C134.088 30.578 131.675 33.4975 127.761 33.4975C123.057 33.4975 119.322 29.5822 119.322 22.4746C119.322 15.9263 122.525 11.5608 128.156 11.5608C130.239 11.6646 132.254 12.3396 133.979 13.5116V21.5332H133.788C131.947 18.0681 128.811 12.6112 126.302 12.6112ZM110.214 14.0297L116.528 11.7788L116.472 28.0813C116.408 29.9057 116.883 31.7085 117.836 33.2653H110.214C111.167 31.7085 111.641 29.9057 111.578 28.0813V19.2138C111.641 17.3893 111.167 15.5865 110.214 14.0297ZM43.1427 17.0448H42.7745L43.0608 11.7789L36.7479 14.0299C37.7008 15.5867 38.175 17.3895 38.1114 19.2139V28.0814C38.175 29.9058 37.7008 31.7086 36.7479 33.2654H44.3699C43.417 31.7086 42.9427 29.9058 43.0063 28.0814V19.4595C43.0063 16.0217 47.5741 16.2126 49.6057 18.6273H49.742V11.7107C46.3741 10.8785 43.7836 14.4392 43.1427 17.0448ZM101.337 17.0449H101.705C102.346 14.4392 104.95 10.8786 108.331 11.7108V18.6274H108.182C106.163 16.2128 101.582 16.0218 101.582 19.4597V28.0815C101.519 29.906 101.992 31.7088 102.945 33.2656H95.3237C96.2766 31.7088 96.7512 29.906 96.6873 28.0815V19.214C96.7512 17.3896 96.2766 15.5868 95.3237 14.03L101.623 11.779L101.337 17.0449ZM26.9442 11.5468C30.6939 11.5468 33.4209 13.1839 33.4209 17.4266V28.4223C33.4129 30.1239 33.8855 31.7933 34.7844 33.2379H28.4577V29.6228C28.0972 30.7352 27.4074 31.7119 26.4797 32.4233C25.552 33.1346 24.4301 33.5473 23.2627 33.6063C22.5479 33.6653 21.8287 33.5711 21.1532 33.33C20.4776 33.0888 19.8612 32.7063 19.345 32.208C18.8289 31.7096 18.4248 31.1069 18.1599 30.44C17.895 29.7731 17.7753 29.0573 17.8088 28.3404C17.8088 24.6418 20.6666 23.0077 23.4138 21.4369C25.9559 19.9833 28.4032 18.584 28.4032 15.6531V13.6478C28.4032 12.9929 28.0759 12.4881 27.3669 12.4881C26.2991 12.4881 24.4392 14.3158 20.6819 18.0082C20.1695 18.5118 19.6217 19.05 19.036 19.6231H18.886L21.1766 12.379C23.0553 11.8537 24.9938 11.574 26.9442 11.5468ZM23.181 27.4946C23.181 29.2681 23.9718 30.455 25.5126 30.455H25.5808C27.2033 30.455 28.2259 28.3132 28.4032 26.5942V18.3134C27.9445 19.962 26.8686 21.1482 25.8117 22.3132C24.4812 23.7802 23.181 25.2137 23.181 27.4946ZM18.2316 11.6147C18.2316 8.70894 16.0773 6.28064 11.7549 6.28064H0.751465C1.70745 7.8361 2.18188 9.63986 2.11497 11.4647V28.0809C2.18081 29.9013 1.70636 31.7003 0.751465 33.2513H8.37348C7.4186 31.7003 6.94415 29.9013 7.00999 28.0809V25.0932C12.2867 21.5872 18.2316 17.1671 18.2316 11.6147ZM12.6821 12.2423C12.6821 17.3172 10.3233 20.8505 7.0645 23.8791V7.31744H8.428C11.455 7.31744 12.7367 9.10458 12.7367 12.2287L12.6821 12.2423ZM156.477 31.1643H155.591L155.536 30.7279H157.84V31.1643H157.008V33.2512H156.477V31.1643ZM160.458 30.7278L159.762 32.4191L159.068 30.7278H158.413V33.2511H158.932V31.6008L159.585 33.2375H159.94L160.594 31.6008V33.2511H161.113V30.7278H160.458Z" fill="black"/>
</svg>
