<svg width="24" height="24" viewBox="0 0 24 24" fill="none" xmlns="http://www.w3.org/2000/svg">
<path d="M11.9237 0C5.32887 0 0 5.37062 0 11.9951C0 17.0794 3.14039 21.4233 7.57621 23.1707C7.46823 22.223 7.37991 20.7618 7.61543 19.7253C7.83134 18.7873 9.00897 13.7622 9.00897 13.7622C9.00897 13.7622 8.65569 13.0416 8.65569 11.9853C8.65569 10.3167 9.61743 9.07281 10.8147 9.07281C11.8353 9.07281 12.3261 9.84288 12.3261 10.761C12.3261 11.7878 11.6783 13.3279 11.3349 14.7594C11.0502 15.9539 11.9335 16.9313 13.1014 16.9313C15.2211 16.9313 16.8502 14.6803 16.8502 11.4422C16.8502 8.56934 14.7991 6.56519 11.8648 6.56519C8.46923 6.56519 6.47706 9.12215 6.47706 11.768C6.47706 12.7947 6.86961 13.9005 7.3603 14.5026C7.45845 14.6211 7.46823 14.7297 7.43879 14.8482C7.35047 15.2234 7.14439 16.0427 7.10512 16.2106C7.05608 16.4278 6.92849 16.4771 6.70275 16.3686C5.23072 15.6577 4.30822 13.4661 4.30822 11.7088C4.30822 7.92762 7.03641 4.45249 12.1887 4.45249C16.3202 4.45249 19.5391 7.41422 19.5391 11.383C19.5391 15.5195 16.9483 18.8466 13.3565 18.8466C12.1494 18.8466 11.011 18.2147 10.6283 17.4645C10.6283 17.4645 10.0296 19.7549 9.88243 20.3176C9.61743 21.3641 8.89121 22.6672 8.40053 23.4669C9.51933 23.8125 10.697 24 11.9335 24C18.5185 24 23.8571 18.6294 23.8571 12.0049C23.8473 5.37062 18.5087 0 11.9237 0Z" fill="black"/>
</svg>
