<svg width="19" height="22" viewBox="0 0 19 22" fill="none" xmlns="http://www.w3.org/2000/svg">
<path d="M7.96449 8.30675V11.9625C7.51905 11.8412 7.05296 11.8247 6.60051 11.9141C6.14806 12.0035 5.72083 12.1967 5.35027 12.4793C4.97971 12.7619 4.67528 13.1268 4.45941 13.5472C4.24353 13.9674 4.12173 14.4324 4.10298 14.9078C4.07763 15.317 4.13739 15.7272 4.27826 16.1106C4.41912 16.4942 4.63783 16.8419 4.91966 17.131C5.2015 17.4199 5.53995 17.6432 5.91228 17.7857C6.28459 17.9285 6.68216 17.9872 7.07827 17.958C9.27675 17.958 10.0535 16.3628 10.0535 14.8666V0.385742H13.5533C14.1487 4.20966 15.9991 5.097 18.4793 5.50712V9.17085C18.4793 9.17085 15.5369 8.95481 13.6525 7.48722V14.7249C13.6505 17.9999 11.7706 21.6556 7.10466 21.6556C2.77461 21.6556 0.559387 17.8668 0.559387 14.6911C0.587011 13.7501 0.807439 12.8258 1.20616 11.9794C1.60487 11.1329 2.17284 10.3832 2.87256 9.77998C3.57229 9.17671 4.38789 8.73348 5.26558 8.47955C6.1433 8.22561 7.06314 8.16672 7.96449 8.30675Z" fill="black"/>
</svg>
